<svg width="57" height="57" viewBox="0 0 57 57" fill="none" xmlns="http://www.w3.org/2000/svg">
<rect width="17.5385" height="17.5385" rx="8.76923" transform="matrix(1 4.48205e-08 4.48205e-08 -1 19.7307 37.2693)" fill="#FFCC00"/>
<path d="M10.904 35.0769C5.38419 35.0769 1.38805 40.4133 4.63618 44.8763C9.98156 52.221 18.6789 57 28.5 57C38.3211 57 47.0184 52.221 52.3638 44.8763C55.612 40.4133 51.6158 35.0769 46.096 35.0769V35.0769C43.0925 35.0769 40.4319 36.8274 38.1609 38.7929C35.5761 41.0299 32.1974 42.3846 28.5 42.3846C24.8026 42.3846 21.4239 41.0299 18.8391 38.7929C16.5681 36.8274 13.9075 35.0769 10.904 35.0769V35.0769Z" fill="#00CA72"/>
<path d="M10.904 21.9231C5.38419 21.9231 1.38805 16.5867 4.63618 12.1237C9.98156 4.77904 18.6789 1.95503e-05 28.5 1.95503e-05C38.3211 1.95503e-05 47.0184 4.77904 52.3638 12.1237C55.612 16.5867 51.6158 21.9231 46.096 21.9231V21.9231C43.0925 21.9231 40.4319 20.1726 38.1609 18.2071C35.5762 15.9701 32.1974 14.6154 28.5 14.6154C24.8026 14.6154 21.4239 15.9701 18.8391 18.2071C16.5681 20.1726 13.9075 21.9231 10.904 21.9231V21.9231Z" fill="#E02F4B"/>
</svg>
